<svg width="108" height="38" viewBox="0 0 108 38" fill="none" xmlns="http://www.w3.org/2000/svg">
<path d="M34.3392 30.6705H33.9961V32.6403H34.3392C35.0807 32.6403 35.8125 32.6403 35.8125 31.6759C35.8125 30.7115 35.1335 30.6705 34.3392 30.6705Z" fill="#457FFD"/>
<path d="M3.96401 27.7773L0 38H100.204L104.166 27.7773H3.96401ZM12.024 30.7549H9.59808V32.0665H11.904V33.8073H9.59808V35.1695H12.024V36.9103H7.54649V29.0142H12.024V30.7549ZM23.6785 36.9199L22.0276 34.3401L20.2232 36.9199H17.7564L20.8278 32.6934L18.3131 29.0142H20.8278L22.0276 31.0587L23.2274 29.0142H25.7421L23.2298 32.6934L26.1404 36.9199H23.6785ZM35.1554 34.2991H33.9964V36.9199H31.952V29.0142H35.0714C36.7631 29.0142 37.9316 29.8002 37.9316 31.6133C37.9412 33.4794 36.9382 34.2991 35.1554 34.2991ZM48.0624 36.9199L46.1308 33.8796H46.1092V36.9199H44.0648V29.0142H47.1218C48.6767 29.0142 49.8572 29.7592 49.8572 31.4469C49.8572 32.5367 49.2502 33.4794 48.1344 33.6795L50.6083 36.9199H48.0624ZM60.8542 30.7549H58.4211V32.0665H60.7271V33.8073H58.4211V35.1695H60.8542V36.9103H56.3887V29.0142H60.8662L60.8542 30.7549ZM71.9856 36.3847C71.3505 36.8877 70.5601 37.1513 69.7516 37.1297C68.7602 37.1201 67.7954 36.8054 66.9874 36.2279L67.8632 34.5716C68.3743 35.0224 68.979 35.3889 69.6797 35.3889C70.1596 35.3889 70.6707 35.1478 70.6707 34.5909C70.6707 34.0339 69.8668 33.8169 69.4277 33.6892C68.144 33.3227 67.2993 32.9875 67.2993 31.4566C67.2993 29.8532 68.4367 28.8044 70.0132 28.8044C70.8704 28.8214 71.7111 29.0437 72.4655 29.453L71.6521 31.0467C71.2764 30.7223 70.8011 30.5376 70.3059 30.5235C69.9292 30.5235 69.4277 30.7429 69.4277 31.1841C69.4277 31.6253 69.982 31.823 70.3371 31.9388L70.8578 32.0955C71.9544 32.421 72.799 32.9779 72.799 34.2654C72.7894 35.0417 72.6023 35.8494 71.9856 36.3847ZM83.6281 36.3847C82.9939 36.8877 82.2042 37.1513 81.3965 37.1297C80.4043 37.1201 79.4388 36.8055 78.6299 36.2279L79.5081 34.5716C80.0192 35.0224 80.6239 35.3889 81.3221 35.3889C81.802 35.3889 82.3155 35.1478 82.3155 34.5909C82.3155 34.0339 81.5117 33.8169 81.0726 33.6892C79.7888 33.3227 78.9442 32.9875 78.9442 31.4566C78.9442 29.8532 80.0816 28.8044 81.6581 28.8044C82.5185 28.8198 83.3627 29.0422 84.12 29.453L83.3065 31.0467C82.9277 30.7197 82.4477 30.5348 81.9484 30.5235C81.5741 30.5235 81.0726 30.7429 81.0726 31.1841C81.0726 31.6253 81.6269 31.823 81.9796 31.9388L82.5027 32.0955C83.5993 32.421 84.4439 32.9779 84.4439 34.2654C84.4343 35.0417 84.2448 35.8494 83.6185 36.3847H83.6281ZM96.6311 36.9199H90.2963L93.5117 33.4071C93.97 32.9032 94.4091 32.1895 94.4091 31.4662C94.4091 30.9647 94.054 30.4391 93.5117 30.4391C92.9694 30.4391 92.6551 30.8683 92.6551 31.4035C92.6551 31.516 92.6655 31.6281 92.6863 31.7386H90.4331C90.4955 29.9256 91.6329 28.6984 93.4997 28.6984C95.1482 28.6984 96.5375 29.7905 96.5375 31.5096C96.5375 32.6404 96.0576 33.301 95.2634 34.0363L94.042 35.1792H96.6215L96.6311 36.9199Z" fill="#457FFD"/>
<path d="M46.3105 30.5862H46.1113V32.5487H46.3105C46.9776 32.5487 47.7286 32.421 47.7286 31.5626C47.7286 30.7043 46.9752 30.5862 46.3105 30.5862Z" fill="#457FFD"/>
<path d="M14.7596 0.556885L4.68164 26.0076H11.7362L12.8112 22.7334H17.4135V26.0076H24.5017L23.1244 0.556885H14.7596ZM17.639 11.4257L17.4711 17.3327H14.5917L16.4393 11.4257C16.9768 9.83929 17.3799 8.21909 17.8502 6.63264H17.9174C17.8166 8.21909 17.7158 9.83929 17.6486 11.4257H17.639Z" fill="#457FFD"/>
<path d="M36.6522 16.5901C36.5178 17.2315 36.3714 18.1091 36.0331 18.8179C35.8857 19.1847 35.6296 19.4971 35.2995 19.7128C34.9694 19.9284 34.5813 20.0369 34.1878 20.0234C33.2472 20.0234 32.9401 19.4834 32.8777 18.7745C32.8153 18.0657 33.0241 17.2218 33.1608 16.5467L36.5202 0.547241H29.6624L26.1734 17.1832C25.5424 20.2549 24.9185 26.4319 32.8465 26.4319C40.7745 26.4319 42.7421 20.2549 43.3732 17.1832L46.8621 0.547241H40.0091L36.6522 16.5901Z" fill="#457FFD"/>
<path d="M63.2056 0.556885H48.6597L47.3616 6.76766H51.1241L47.0977 26.0076H53.9507L57.9771 6.76766H61.9075L63.2056 0.556885Z" fill="#457FFD"/>
<path d="M73.1332 0.118164C66.1746 0.118164 62.021 7.07153 60.7229 13.2823C59.4247 19.4931 60.6749 26.4464 67.6263 26.4464C74.5777 26.4464 78.7744 19.4931 80.0726 13.2823C81.3707 7.07153 80.087 0.118164 73.1332 0.118164ZM73.0852 13.2823C72.7325 14.8687 71.5567 20.0331 68.97 20.0331C66.3833 20.0331 67.3575 14.8687 67.7103 13.2823C68.027 11.6959 69.2028 6.53146 71.7894 6.53146C74.3761 6.53146 73.4019 11.6959 73.0852 13.2823Z" fill="#457FFD"/>
<path d="M77.5742 27.0034H86.5316L90.0829 18.0031H81.1231L77.5742 27.0034Z" fill="#457FFD"/>
<path d="M99.0396 18.0031L95.4883 27.0034H104.448L107.997 18.0031H99.0396Z" fill="#457FFD"/>
<path d="M106.058 2.55809C103.085 2.45441 98.0488 3.45981 96.0931 2.76061L97.1801 0H88.2251L84.6738 9.00032H93.6336L94.7806 6.12398C97.2185 5.71893 100.1 5.20297 106.058 2.55809Z" fill="#457FFD"/>
<path d="M107.999 13.5017C104.918 13.3812 101.477 13.8851 100.846 13.4246L102.591 9.00037H93.6333L90.082 18.0031H99.0394L99.7473 16.2117C100.988 15.6982 102.483 15.0448 107.999 13.5017Z" fill="#457FFD"/>
</svg>
