<?xml version="1.0" encoding="UTF-8"?>
<svg id="Warstwa_2" data-name="Warstwa 2" xmlns="http://www.w3.org/2000/svg" viewBox="0 0 30.42 27">
  <defs>
    <style>
      .cls-1 {
        fill: #457ffd;
      }
    </style>
  </defs>
  <g id="Warstwa_1-2" data-name="Warstwa 1">
    <g>
      <path class="cls-1" d="M0,27h8.96l3.55-9H3.55L0,27Z"/>
      <path class="cls-1" d="M21.47,18l-3.55,9h8.96l3.55-9h-8.96Z"/>
      <path class="cls-1" d="M28.48,2.56c-2.97-.1-8.01.9-9.96.2l1.09-2.76h-8.96l-3.55,9h8.96l1.15-2.88c2.44-.41,5.32-.92,11.28-3.57Z"/>
      <path class="cls-1" d="M30.42,13.5c-3.08-.12-6.52.38-7.15-.08l1.75-4.42h-8.96l-3.55,9h8.96l.71-1.79c1.24-.51,2.74-1.17,8.25-2.71Z"/>
    </g>
  </g>
</svg>